<svg xmlns="http://www.w3.org/2000/svg" viewBox="0 0 101.59 114.65"><defs><style>.cls-1{fill:#FFFFFF;}</style></defs><title>Active Users</title><g id="Layer_2" data-name="Layer 2"><g id="Layer_1-2" data-name="Layer 1"><path class="cls-1" d="M50.79,61.28C22.31,61.28,0,74.65,0,91.72v5.09a5,5,0,1,0,10,0V91.72c0-9.87,16.39-20.44,40.79-20.44S91.59,81.85,91.59,91.72v5.09a5,5,0,1,0,10,0V91.72C101.59,74.65,79.28,61.28,50.79,61.28Z"/><path class="cls-1" d="M51,50.71a25.45,25.45,0,0,0,3.73-.28,25.35,25.35,0,0,0,21.36-28.8A25.35,25.35,0,1,0,51,50.71ZM38.68,16.21a15.35,15.35,0,1,1-2.86,11.4A15.25,15.25,0,0,1,38.68,16.21Z"/><path class="cls-1" d="M50.25,114.65a2.76,2.76,0,0,1-.67-.08,2.63,2.63,0,0,1-2-2.59V101.82h-3.7a2.67,2.67,0,0,1-2.37-3.92l8-15.13a2.67,2.67,0,0,1,5,1.24V94.17h3.7a2.67,2.67,0,0,1,2.37,3.92l-8,15.13A2.63,2.63,0,0,1,50.25,114.65Zm-5.4-16.1h3.3a2.67,2.67,0,0,1,2.67,2.67v8.31l6.36-12.08h-3.3a2.67,2.67,0,0,1-2.67-2.67V86.47Z"/></g></g></svg>
