<svg xmlns="http://www.w3.org/2000/svg" viewBox="0 0 112.48 112.48"><defs><style>.cls-1{fill:#FFFFFF;}</style></defs><title>Percentage of Automations</title><g id="Layer_2" data-name="Layer 2"><g id="Layer_1-2" data-name="Layer 1"><path class="cls-1" d="M48.15,48.69c0-3.48-.65-5.31-2.7-5.31s-2.7,1.83-2.7,5.31S43.41,54,45.45,54,48.15,52.22,48.15,48.69Z"/><path class="cls-1" d="M67.08,58.44c-2,0-2.7,1.83-2.7,5.31s.65,5.35,2.7,5.35,2.7-1.83,2.7-5.35S69.12,58.44,67.08,58.44Z"/><path class="cls-1" d="M56.24,25.28a31,31,0,1,0,31,31A31,31,0,0,0,56.24,25.28ZM37.44,48.69c0-5.18,3.09-8.57,8-8.57s8,3.39,8,8.57-3.09,8.57-8,8.57S37.44,53.87,37.44,48.69ZM48.63,72.36H44.75L63.42,40.12h4Zm18.45,0c-4.92,0-8-3.44-8-8.62s3.09-8.57,8-8.57,8,3.39,8,8.57S72,72.36,67.08,72.36Z"/><path class="cls-1" d="M105.42,43.51h0a7.06,7.06,0,0,1-6.55-4.41q-.21-.53-.44-1a7.06,7.06,0,0,1,1.49-7.8l.5-.5a7.07,7.07,0,0,0,0-10l-8-8a7.07,7.07,0,0,0-10,0l-.63.63a7,7,0,0,1-7.69,1.53l-.75-.31A7,7,0,0,1,69,7.07h0A7.07,7.07,0,0,0,61.91,0H50.58a7.07,7.07,0,0,0-7.07,7.07h0a7,7,0,0,1-4.4,6.54l-1.32.56A7.05,7.05,0,0,1,30,12.69L29,11.74a7.07,7.07,0,0,0-10,0l-8,8a7.07,7.07,0,0,0,0,10L12.26,31a7,7,0,0,1,1.54,7.67l-.19.47a7,7,0,0,1-6.54,4.4h0A7.07,7.07,0,0,0,0,50.58V61.91A7.07,7.07,0,0,0,7.07,69h0a7,7,0,0,1,6.53,4.37l.31.75a7,7,0,0,1-1.53,7.69l-1.75,1.75a7.07,7.07,0,0,0,0,10l8,8a7.07,7.07,0,0,0,10,0l1.62-1.62A7.06,7.06,0,0,1,38,98.43l1,.44a7.06,7.06,0,0,1,4.41,6.55h0a7.07,7.07,0,0,0,7.07,7.07H61.91A7.07,7.07,0,0,0,69,105.42h0a7,7,0,0,1,4.4-6.54l.47-.19a7,7,0,0,1,7.67,1.54l1.31,1.31a7.07,7.07,0,0,0,10,0l8-8a7.07,7.07,0,0,0,0-10l-1-1a7.05,7.05,0,0,1-1.48-7.82q.29-.66.56-1.32a7,7,0,0,1,6.54-4.4h0a7.07,7.07,0,0,0,7.07-7.07V50.58A7.07,7.07,0,0,0,105.42,43.51ZM56.24,95.05A38.81,38.81,0,1,1,95.05,56.24,38.81,38.81,0,0,1,56.24,95.05Z"/></g></g></svg>
