<svg xmlns="http://www.w3.org/2000/svg" viewBox="0 0 120.6 100.56"><defs><style>.cls-1{fill:#FFFFFF;}</style></defs><title>Conversion Rate</title><g id="Layer_2" data-name="Layer 2"><g id="Layer_1-2" data-name="Layer 1"><path class="cls-1" d="M115.44,10.19a5.17,5.17,0,0,0-5.17,5.17v13L95.78,14.7A50.58,50.58,0,0,0,77,2.91,50.29,50.29,0,0,0,15.1,28.21a5.17,5.17,0,1,0,9.32,4.46,40,40,0,0,1,49.17-20,40.2,40.2,0,0,1,14.93,9.42l13.87,13H90.53a5.17,5.17,0,0,0,0,10.33H120.6V15.36A5.17,5.17,0,0,0,115.44,10.19Z"/><path class="cls-1" d="M102.57,65.23a5.13,5.13,0,0,0-6.33,2.53,40.2,40.2,0,0,1-7.68,10.78A39.68,39.68,0,0,1,60.33,90.22h0A39.68,39.68,0,0,1,32.08,78.52l-13.87-13H30.07a5.17,5.17,0,1,0,0-10.33H0V85.22a5.17,5.17,0,0,0,10.33,0v-13l14.5,13.62a50,50,0,0,0,35.49,14.68h0A50,50,0,0,0,95.87,85.84a50.6,50.6,0,0,0,9.58-13.4A5.19,5.19,0,0,0,102.57,65.23Z"/><path class="cls-1" d="M60.2,60.48c-3.15,0-6.1-1.65-9-5l-4.55,7.39A17.2,17.2,0,0,0,59,68.18v6h3.26V68.08c7.13-.67,11.68-5.79,11.68-12.71,0-6.77-3.62-9.2-10.13-11-3.41-.93-5.89-1.45-5.89-4.08,0-1.76,1.6-3,4-3A11.12,11.12,0,0,1,69,40.18L72.24,33a18.7,18.7,0,0,0-8.53-3.2V26.33H60.46v3.51c-7.6.72-11.94,5.17-11.94,11.78,0,5.84,3.31,8.42,10.23,10.28,4,1,5.84,1.86,5.84,4.75C64.59,58.78,62.83,60.48,60.2,60.48Z"/></g></g></svg>
