<svg xmlns="http://www.w3.org/2000/svg" viewBox="0 0 99.17 94.99"><defs><style>.cls-1{fill:#FFFFFF;}</style></defs><title>CPA</title><g id="Layer_2" data-name="Layer 2"><g id="Layer_1-2" data-name="Layer 1"><path class="cls-1" d="M97,20.61h0a7.44,7.44,0,0,0-10.52,0L28.69,78.4l-16-16A7.44,7.44,0,1,0,2.18,72.93L21.09,91.84a10.74,10.74,0,0,0,15.19,0L97,31.13A7.44,7.44,0,0,0,97,20.61Z"/><path class="cls-1" d="M30,35.48c-3.27,0-6.33-1.72-9.34-5.21l-4.72,7.68c3.87,3.7,7.73,5.42,12.83,5.53v6.28h3.38V43.37c7.41-.7,12.13-6,12.13-13.2,0-7-3.76-9.55-10.52-11.38-3.54-1-6.12-1.5-6.12-4.24,0-1.83,1.66-3.17,4.19-3.17a11.55,11.55,0,0,1,7.35,3L42.5,6.93A19.43,19.43,0,0,0,33.64,3.6V0H30.26V3.65C22.37,4.4,17.86,9,17.86,15.89c0,6.07,3.44,8.75,10.63,10.68,4.13,1.07,6.07,1.93,6.07,4.94C34.55,33.71,32.73,35.48,30,35.48Z"/></g></g></svg>
