<svg xmlns="http://www.w3.org/2000/svg" viewBox="0 0 101.59 101.81"><defs><style>.cls-1{fill:#FFFFFF;}</style></defs><title>customers</title><g id="Layer_2" data-name="Layer 2"><g id="Layer_1-2" data-name="Layer 1"><path class="cls-1" d="M50.79,61.28C22.31,61.28,0,74.65,0,91.72v5.09a5,5,0,1,0,10,0V91.72c0-9.87,16.39-20.44,40.79-20.44S91.59,81.85,91.59,91.72v5.09a5,5,0,1,0,10,0V91.72C101.59,74.65,79.28,61.28,50.79,61.28Z"/><path class="cls-1" d="M51,50.71a25.45,25.45,0,0,0,3.73-.28,25.35,25.35,0,0,0,21.36-28.8A25.35,25.35,0,1,0,51,50.71ZM38.68,16.21a15.35,15.35,0,1,1-2.86,11.4A15.25,15.25,0,0,1,38.68,16.21Z"/></g></g></svg>
