<svg xmlns="http://www.w3.org/2000/svg" viewBox="0 0 107.13 87.7"><defs><style>.cls-1{fill:#FFFFFF;}</style></defs><title>email</title><g id="Layer_2" data-name="Layer 2"><g id="Layer_1-2" data-name="Layer 1"><path class="cls-1" d="M107.12,14.66s0-.06,0-.1A14.72,14.72,0,0,0,92.41,0H14.71A14.72,14.72,0,0,0,0,14.56s0,.06,0,.1,0,0,0,.06V73A14.73,14.73,0,0,0,14.71,87.7h77.7A14.73,14.73,0,0,0,107.13,73V14.71S107.12,14.68,107.12,14.66ZM14.71,10h77.7a4.7,4.7,0,0,1,4.14,2.51l-43,30.09-43-30.09A4.7,4.7,0,0,1,14.71,10Zm77.7,67.7H14.71A4.72,4.72,0,0,1,10,73V24.32L50.7,52.8a5,5,0,0,0,5.73,0l40.7-28.49V73A4.72,4.72,0,0,1,92.41,77.7Z"/></g></g></svg>
