<svg xmlns="http://www.w3.org/2000/svg" viewBox="0 0 136.1 106.94"><defs><style>.cls-1{fill:#FFFFFF;}</style></defs><title>Engagement</title><g id="Layer_2" data-name="Layer 2"><g id="Layer_1-2" data-name="Layer 1"><path class="cls-1" d="M66.45,106.94C29.81,106.94,0,83,0,53.47S29.81,0,66.45,0,132.9,24,132.9,53.47a44.07,44.07,0,0,1-3.38,16.9,20.64,20.64,0,0,0,2.42,19.82l2.79,3.86a7.29,7.29,0,0,1-8.14,11.21l-15.28-4.9a20.53,20.53,0,0,0-14.19.57A80.12,80.12,0,0,1,66.45,106.94Zm60.16-7h0ZM66.45,10C35.32,10,10,29.5,10,53.47S35.32,96.94,66.45,96.94a70,70,0,0,0,26.8-5.23,30.55,30.55,0,0,1,21.11-.87l7.7,2.47a30.69,30.69,0,0,1-1.79-26.76,34.12,34.12,0,0,0,2.63-13.08C122.9,29.5,97.57,10,66.45,10Z"/><path class="cls-1" d="M58.43,84.46A5.2,5.2,0,0,1,57.24,84a5,5,0,0,1-2.71-5.57l4-18.67-6.81-1.46a5,5,0,0,1-2.8-8.14L69.54,25.53a5,5,0,0,1,8.77,4.27l-4,18.67,6.81,1.46a5,5,0,0,1,2.8,8.14L63.3,82.75A4.94,4.94,0,0,1,58.43,84.46ZM54.86,52.72,60.93,54a5,5,0,0,1,3.86,6L61.52,75.27,78,55.56l-6.07-1.3a5,5,0,0,1-3.86-6L71.32,33Z"/></g></g></svg>
