<svg xmlns="http://www.w3.org/2000/svg" viewBox="0 0 105.09 86.4"><defs><style>.cls-1{fill:#FFFFFF;}</style></defs><title>Marketing Spent</title><g id="Layer_2" data-name="Layer 2"><g id="Layer_1-2" data-name="Layer 1"><path class="cls-1" d="M79.35,31.76l3.85,3.85a1.64,1.64,0,0,1,0,2.32L61.66,59.68a1.64,1.64,0,0,1-1.87.33L28.42,45.22a1.64,1.64,0,0,0-2,.46L.36,78.33a1.64,1.64,0,0,0,.26,2.31L7.38,86a1.64,1.64,0,0,0,2.31-.26L29.88,60.51a1.64,1.64,0,0,1,2-.46L62.34,74.42a1.64,1.64,0,0,0,1.87-.33L91.64,46.38a1.64,1.64,0,0,1,2.33,0l3.45,3.45a1.64,1.64,0,0,0,2.77-.82l4.86-22.94a1.64,1.64,0,0,0-1.95-1.95L80.17,29A1.64,1.64,0,0,0,79.35,31.76Z"/><path class="cls-1" d="M52.37,29.22c-2.7,0-5.22-1.42-7.69-4.29l-3.89,6.32a14.72,14.72,0,0,0,10.57,4.55V41h2.79V35.72c6.1-.57,10-5,10-10.88S61,17,55.46,15.47c-2.92-.8-5-1.24-5-3.49,0-1.5,1.37-2.61,3.45-2.61a9.51,9.51,0,0,1,6.06,2.48L62.67,5.7A16,16,0,0,0,55.37,3V0H52.59V3c-6.5.62-10.21,4.42-10.21,10.08,0,5,2.83,7.21,8.75,8.8,3.4.88,5,1.59,5,4.07C56.12,27.77,54.62,29.22,52.37,29.22Z"/></g></g></svg>
