<svg xmlns="http://www.w3.org/2000/svg" viewBox="0 0 125.8 109.43"><defs><style>.cls-1{fill:#FFFFFF;}</style></defs><title>Monthly Revenue</title><g id="Layer_2" data-name="Layer 2"><g id="Layer_1-2" data-name="Layer 1"><path class="cls-1" d="M122.43,50.56a3.37,3.37,0,0,0-3.37,3.37v8.45l-9.44-8.87a33,33,0,0,0-12.2-7.69A32.76,32.76,0,0,0,57.06,62.3a3.37,3.37,0,1,0,6.07,2.9,26,26,0,0,1,32-13,26.19,26.19,0,0,1,9.73,6.14l9,8.49H106.2a3.37,3.37,0,0,0,0,6.73H125.8V53.92A3.37,3.37,0,0,0,122.43,50.56Z"/><path class="cls-1" d="M114,86.41a3.34,3.34,0,0,0-4.12,1.65,26.19,26.19,0,0,1-5,7,25.85,25.85,0,0,1-18.4,7.62h0a25.85,25.85,0,0,1-18.4-7.63l-9-8.49h7.73a3.37,3.37,0,0,0,0-6.73H47.22V99.44a3.37,3.37,0,1,0,6.73,0V91l9.44,8.87a32.54,32.54,0,0,0,23.12,9.56h0a32.55,32.55,0,0,0,23.16-9.59,33,33,0,0,0,6.24-8.73A3.38,3.38,0,0,0,114,86.41Z"/><path class="cls-1" d="M86.61,61.07v2.29c-4.95.47-7.78,3.37-7.78,7.68,0,3.8,2.15,5.49,6.67,6.7,2.59.67,3.8,1.21,3.8,3.1a2.61,2.61,0,0,1-2.86,2.49c-2.05,0-4-1.08-5.86-3.27l-3,4.81a11.21,11.21,0,0,0,8,3.47v3.94h2.12v-4A8,8,0,0,0,95.4,80c0-4.41-2.36-6-6.6-7.14-2.22-.61-3.84-.94-3.84-2.66,0-1.14,1-2,2.63-2a7.24,7.24,0,0,1,4.61,1.89l2.09-4.68a12.18,12.18,0,0,0-5.55-2.09V61.07Z"/><rect class="cls-1" x="35.34" y="6.98" width="34.12" height="10.1" rx="2.58" ry="2.58"/><rect class="cls-1" x="23.23" width="6.73" height="23.56" rx="3.37" ry="3.37"/><rect class="cls-1" x="74.39" width="6.73" height="23.56" rx="3.37" ry="3.37"/><path class="cls-1" d="M71.37,45a35,35,0,0,1,15.14-3.44V35H18.3V70.92H76.48c0-4.85,3-8.37,7.77-9.55V58.72h2.26V53A23.72,23.72,0,0,0,65.25,66.24a5.72,5.72,0,1,1-10.31-5A34.68,34.68,0,0,1,71.37,45Z"/><path class="cls-1" d="M95.15,73.36A8.45,8.45,0,0,1,97.75,80a10.26,10.26,0,0,1-4.87,9.06,12.87,12.87,0,0,0,12.36-12.84v-.42a5.72,5.72,0,0,1,0-11.27V61.85l-2-1.89a23.83,23.83,0,0,0-8.09-5.29v8.51l.46.28,1.64,1.11-2.1,4.7Z"/><path class="cls-1" d="M10.1,76.21V19.85a2.77,2.77,0,0,1,2.77-2.77H16.1a2.2,2.2,0,0,0,2.2-2.2V9.18A2.2,2.2,0,0,0,16.1,7H12.87A12.87,12.87,0,0,0,0,19.85V76.21A12.87,12.87,0,0,0,12.87,89.08h32V79h-32A2.77,2.77,0,0,1,10.1,76.21Z"/><path class="cls-1" d="M87,80.83c0-.06,0-.1,0-.13a8.46,8.46,0,0,0-2-.69c-.51-.14-1-.29-1.53-.45A4.63,4.63,0,0,0,86.44,81,.72.72,0,0,0,87,80.83Z"/><path class="cls-1" d="M66.81,88.94H65l.15.14H79.33A16,16,0,0,1,76,86.57l-1.37-1.32L78.48,79H70.65a5.71,5.71,0,0,1-3.83,10Z"/><path class="cls-1" d="M95.15,19.85V42.66c1,.26,2,.57,3.06.93a35.15,35.15,0,0,1,7,3.42V19.85A12.87,12.87,0,0,0,92.38,7H88.71a2.2,2.2,0,0,0-2.2,2.2v5.7a2.2,2.2,0,0,0,2.2,2.2h3.67A2.77,2.77,0,0,1,95.15,19.85Z"/></g></g></svg>
