<svg xmlns="http://www.w3.org/2000/svg" viewBox="0 0 65.15 104.38"><defs><style>.cls-1{fill:#FFFFFF;}</style></defs><title>Other</title><g id="Layer_2" data-name="Layer 2"><g id="Layer_1-2" data-name="Layer 1"><path class="cls-1" d="M20.9,69V41.54H28c10,0,15.34-4.21,15.34-11.81A10.64,10.64,0,0,0,32.85,18.87c-6,0-9.91,3.39-10.18,9.77H0V28.1C0,11.27,13.17,0,33.93,0,52.8,0,65.15,12.08,65.15,29.59c0,14.66-8.69,25-21.45,25.25V69Zm10.59,8.55A13.44,13.44,0,1,1,18.05,90.94,13.27,13.27,0,0,1,31.49,77.51Z"/></g></g></svg>
