<svg xmlns="http://www.w3.org/2000/svg" viewBox="0 0 101.59 113.19"><defs><style>.cls-1{fill:#FFFFFF;}</style></defs><title>Paying Users</title><g id="Layer_2" data-name="Layer 2"><g id="Layer_1-2" data-name="Layer 1"><path class="cls-1" d="M50.79,61.28C22.31,61.28,0,74.65,0,91.72v5.09a5,5,0,1,0,10,0V91.72c0-9.87,16.39-20.44,40.79-20.44S91.59,81.85,91.59,91.72v5.09a5,5,0,1,0,10,0V91.72C101.59,74.65,79.28,61.28,50.79,61.28Z"/><path class="cls-1" d="M51,50.71a25.45,25.45,0,0,0,3.73-.28,25.35,25.35,0,0,0,21.36-28.8A25.35,25.35,0,1,0,51,50.71ZM38.68,16.21a15.35,15.35,0,1,1-2.86,11.4A15.25,15.25,0,0,1,38.68,16.21Z"/><path class="cls-1" d="M53.58,92.46c-2.37-.65-4.1-1-4.1-2.84,0-1.22,1.11-2.12,2.8-2.12a7.73,7.73,0,0,1,4.92,2l2.23-5a13,13,0,0,0-5.93-2.23V79.89H51.25v2.44c-5.28.5-8.3,3.59-8.3,8.19,0,4.06,2.3,5.86,7.11,7.15,2.77.72,4.06,1.29,4.06,3.31a2.79,2.79,0,0,1-3.05,2.66c-2.19,0-4.24-1.15-6.25-3.48l-3.16,5.14a12,12,0,0,0,8.59,3.7v4.2H52.5v-4.28a8.52,8.52,0,0,0,8.12-8.84C60.62,95.37,58.11,93.68,53.58,92.46Z"/></g></g></svg>
