<svg xmlns="http://www.w3.org/2000/svg" viewBox="0 0 103.38 103.38"><defs><style>.cls-1{fill:#FFFFFF;}</style></defs><title>Pilots</title><g id="Layer_2" data-name="Layer 2"><g id="Layer_1-2" data-name="Layer 1"><path class="cls-1" d="M101.82,18.95A99.66,99.66,0,0,0,103.38,5.1,4.88,4.88,0,0,0,98.28,0a99.75,99.75,0,0,0-13.7,1.53A125.47,125.47,0,0,1,101.82,18.95Z"/><path class="cls-1" d="M20.8,66.77a3.22,3.22,0,0,0,0,4.55L32.06,82.58a3.22,3.22,0,0,0,4.55,0L42,77.22,26.16,61.41Z"/><path class="cls-1" d="M59.83,92.41,70.67,78.27a11.38,11.38,0,0,0,2-11l-.88-2.17c12.86-8.25,24.59-21.54,29.41-42.94A116.13,116.13,0,0,0,81.39,2.19C59.91,7,46.58,18.74,38.31,31.63l-2.17-.88a11.38,11.38,0,0,0-11,2L11,43.55c-1.65,1.26-1.44,3.65.36,4l15.52,3.48a2.2,2.2,0,0,1,1.64,2.75c-.6,2.11-1.09,4.14-1.51,6.09L43.47,76.41c1.95-.42,4-.92,6.09-1.51a2.2,2.2,0,0,1,2.75,1.64L55.78,92C56.18,93.84,58.57,94.05,59.83,92.41Zm7.49-56.29a9.32,9.32,0,1,1,13.18,0A9.32,9.32,0,0,1,67.32,36.12Z"/><path class="cls-1" d="M1.28,95.93a4.36,4.36,0,0,0,6.17,6.17L27.78,81.77,21.61,75.6Z"/><path class="cls-1" d="M11.5,101.52a4.36,4.36,0,0,0,6.17,0L32.6,86.59,29.51,83.5Z"/><path class="cls-1" d="M1.86,85.71a4.36,4.36,0,0,0,0,6.17l18-18-3.09-3.09Z"/></g></g></svg>
