<svg xmlns="http://www.w3.org/2000/svg" viewBox="0 0 88.18 123.85"><defs><style>.cls-1{fill:#FFFFFF;}</style></defs><title>Preorders</title><g id="Layer_2" data-name="Layer 2"><g id="Layer_1-2" data-name="Layer 1"><path class="cls-1" d="M85.35,74.4a2.83,2.83,0,0,0-2.83,2.83v7.09l-7.93-7.45a27.68,27.68,0,0,0-10.25-6.45,27.52,27.52,0,0,0-33.9,13.85,2.83,2.83,0,1,0,5.1,2.44,21.86,21.86,0,0,1,26.91-11,22,22,0,0,1,8.17,5.15L78.22,88H71.72a2.83,2.83,0,1,0,0,5.65H88.18V77.23A2.83,2.83,0,0,0,85.35,74.4Z"/><path class="cls-1" d="M78.31,104.52a2.81,2.81,0,0,0-3.46,1.38,22,22,0,0,1-4.2,5.9,21.71,21.71,0,0,1-15.45,6.4h0a21.71,21.71,0,0,1-15.45-6.41l-7.59-7.13h6.49a2.83,2.83,0,0,0,0-5.65H22.18v16.46a2.83,2.83,0,1,0,5.65,0v-7.09l7.93,7.45a27.33,27.33,0,0,0,19.42,8h0a27.33,27.33,0,0,0,19.45-8.05,27.69,27.69,0,0,0,5.24-7.33A2.84,2.84,0,0,0,78.31,104.52Z"/><path class="cls-1" d="M55.13,101.92c-1.72,0-3.34-.91-4.92-2.74l-2.49,4a9.41,9.41,0,0,0,6.76,2.91v3.31h1.78v-3.36a6.7,6.7,0,0,0,6.39-7c0-3.7-2-5-5.54-6-1.87-.51-3.22-.79-3.22-2.23,0-1,.88-1.67,2.21-1.67A6.08,6.08,0,0,1,60,90.81l1.75-3.93A10.23,10.23,0,0,0,57,85.13V83.23H55.27v1.92c-4.16.4-6.53,2.83-6.53,6.45,0,3.19,1.81,4.61,5.6,5.63,2.18.57,3.19,1,3.19,2.6A2.19,2.19,0,0,1,55.13,101.92Z"/><path class="cls-1" d="M49.71,27.91a37.41,37.41,0,0,0,4.21-12.44,2.75,2.75,0,0,0-2.72-3.18H15.84a2.76,2.76,0,0,0-2.69,3.34,43.7,43.7,0,0,0,4.17,12.28C22.64,37.18,30.11,40.19,32.92,41A3.42,3.42,0,0,0,35,41C41.09,38.93,46.82,33,49.71,27.91Z"/><path class="cls-1" d="M58.46,107.89v1a9.52,9.52,0,0,0,8.31-9.43V93.55a36.39,36.39,0,0,0-3.2-15,19.46,19.46,0,0,0-11.16-1.7A27.54,27.54,0,0,1,55,81h4.26v2.29a12.71,12.71,0,0,1,3.69,1.73l1.53,1-2.9,6.51c1.89,1.22,3.27,3.16,3.27,6.52A8.77,8.77,0,0,1,58.46,107.89Z"/><path class="cls-1" d="M38.64,106.86H37.7l2.21,2.08H52.28v-.82a11.73,11.73,0,0,1-6.08-3.31l-1.28-1.23L47,100.14H43.37a5,5,0,0,1-4.73,6.71Z"/><path class="cls-1" d="M8.79,99.42V93.55A27.53,27.53,0,0,1,16.91,74L27.15,63.71a13.09,13.09,0,0,0,0-18.48L16.91,35A27.53,27.53,0,0,1,8.79,15.39V9.52a.72.72,0,0,1,.72-.72H57.25a.72.72,0,0,1,.72.72v5.88A27.53,27.53,0,0,1,49.85,35L39.61,45.23a13.09,13.09,0,0,0,0,18.48l4.91,4.91a29.49,29.49,0,0,1,10.44-2l-9.14-9.14a4.28,4.28,0,0,1,0-6L56.07,41.2A36.27,36.27,0,0,0,66.76,15.39V9.52A9.53,9.53,0,0,0,57.25,0H9.52A9.53,9.53,0,0,0,0,9.52v5.88A36.26,36.26,0,0,0,10.69,41.2L20.93,51.44a4.28,4.28,0,0,1,0,6L10.69,67.73A36.26,36.26,0,0,0,0,93.55v5.88a9.53,9.53,0,0,0,9.52,9.52H20v-8.79H9.52A.72.72,0,0,1,8.79,99.42Z"/></g></g></svg>
