<svg xmlns="http://www.w3.org/2000/svg" viewBox="0 0 132.16 125.02"><defs><style>.cls-1{fill:#FFFFFF;}</style></defs><title>Product Releases</title><g id="Layer_2" data-name="Layer 2"><g id="Layer_1-2" data-name="Layer 1"><path class="cls-1" d="M124,41.24,104.86,60.44a1.28,1.28,0,0,1-.91.38H28.21a1.28,1.28,0,0,1-.91-.38L8.11,41.24a4.75,4.75,0,0,0-6.72,0h0a4.75,4.75,0,0,0,0,6.72L20.58,67.16a1.28,1.28,0,0,1,.38.91v37.74A19.21,19.21,0,0,0,40.17,125H92a19.21,19.21,0,0,0,19.21-19.21V68.06a1.28,1.28,0,0,1,.38-.91L130.77,48a4.75,4.75,0,0,0,0-6.72h0A4.75,4.75,0,0,0,124,41.24ZM30.47,105.81V71.6a1.28,1.28,0,0,1,1.28-1.28H55.34A1.28,1.28,0,0,1,56.55,72L41.38,114.66a1.28,1.28,0,0,1-1.21.85h0A9.7,9.7,0,0,1,30.47,105.81Zm71.23,0a9.7,9.7,0,0,1-9.7,9.7H47.94a1.28,1.28,0,0,1-1.21-1.71L61.9,71.17a1.28,1.28,0,0,1,1.21-.85h37.31a1.28,1.28,0,0,1,1.28,1.28Z"/><path class="cls-1" d="M54.48,33.52a1.34,1.34,0,0,1,.38,1.18l-2,11.91A1.34,1.34,0,0,0,54.77,48l10.7-5.62a1.34,1.34,0,0,1,1.24,0L77.4,48a1.34,1.34,0,0,0,1.94-1.41l-2-11.91a1.34,1.34,0,0,1,.38-1.18l8.65-8.43a1.34,1.34,0,0,0-.74-2.28l-12-1.74a1.34,1.34,0,0,1-1-.73L67.28,9.49a1.34,1.34,0,0,0-2.4,0L59.54,20.33a1.34,1.34,0,0,1-1,.73l-12,1.74a1.34,1.34,0,0,0-.74,2.28Z"/><path class="cls-1" d="M101.31,13.21a.44.44,0,0,1,.22.34l.35,3.92a.44.44,0,0,0,.73.28l2.9-2.66a.44.44,0,0,1,.39-.1l3.83.88a.44.44,0,0,0,.49-.61l-1.63-3.58a.44.44,0,0,1,0-.4l2-3.37a.44.44,0,0,0-.42-.66l-3.91.45a.44.44,0,0,1-.38-.15l-2.58-3a.44.44,0,0,0-.75.2l-.78,3.86a.44.44,0,0,1-.26.31l-3.62,1.54a.44.44,0,0,0,0,.78Z"/><path class="cls-1" d="M90.42,46.36l4.78.37a.53.53,0,0,1,.42.26L98,51.15a.53.53,0,0,0,.95-.06l1.83-4.43a.53.53,0,0,1,.38-.32l4.69-1a.53.53,0,0,0,.23-.92l-3.65-3.11a.53.53,0,0,1-.18-.46l.5-4.77a.53.53,0,0,0-.81-.51l-4.09,2.51a.53.53,0,0,1-.49,0L93,36.15a.53.53,0,0,0-.73.61l1.12,4.66a.53.53,0,0,1-.12.48l-3.21,3.57A.53.53,0,0,0,90.42,46.36Z"/><path class="cls-1" d="M26.59,7.61l3.35.26a.37.37,0,0,1,.29.18L31.91,11a.37.37,0,0,0,.66,0l1.28-3.1a.37.37,0,0,1,.27-.22l3.28-.7a.37.37,0,0,0,.16-.65L35,4.07a.37.37,0,0,1-.13-.32L35.23.41a.37.37,0,0,0-.56-.36L31.81,1.81a.37.37,0,0,1-.34,0L28.4.47a.37.37,0,0,0-.51.43l.78,3.26a.37.37,0,0,1-.08.34L26.34,7A.37.37,0,0,0,26.59,7.61Z"/><path class="cls-1" d="M22.81,45.67l3.66.29a.41.41,0,0,1,.32.2l1.84,3.18a.41.41,0,0,0,.73,0l1.4-3.39a.41.41,0,0,1,.29-.24l3.59-.77a.41.41,0,0,0,.18-.71L32,41.8a.41.41,0,0,1-.14-.35l.38-3.65a.41.41,0,0,0-.62-.39l-3.13,1.92a.41.41,0,0,1-.38,0l-3.35-1.49a.41.41,0,0,0-.56.47l.86,3.57a.41.41,0,0,1-.09.37L22.54,45A.41.41,0,0,0,22.81,45.67Z"/></g></g></svg>
