<svg xmlns="http://www.w3.org/2000/svg" viewBox="0 0 116.71 97.31"><defs><style>.cls-1{fill:#FFFFFF;}.cls-2{fill:#FFFFFF;}</style></defs><title>sales</title><g id="Layer_2" data-name="Layer 2"><g id="Layer_1-2" data-name="Layer 1"><path class="cls-1" d="M106.71,14.86V27.41l-14-13.18A49,49,0,0,0,74.56,2.81,48.67,48.67,0,0,0,14.61,27.3a5,5,0,0,0,2.83,6.91h0a5,5,0,0,0,6.19-2.59A38.67,38.67,0,0,1,71.23,12.24a38.9,38.9,0,0,1,14.45,9.11L99.09,34H87.61a5,5,0,0,0-5,5h0a5,5,0,0,0,5,5h29.1V14.86a5,5,0,0,0-5-5h0A5,5,0,0,0,106.71,14.86Z"/><path class="cls-1" d="M85.71,76A38.4,38.4,0,0,1,58.38,87.31h0A38.4,38.4,0,0,1,31,76L17.62,63.37H29.1a5,5,0,0,0,5-5h0a5,5,0,0,0-5-5H0v29.1a5,5,0,0,0,5,5H5a5,5,0,0,0,5-5V69.93L24,83.11a48.34,48.34,0,0,0,34.34,14.2h0a48.34,48.34,0,0,0,34.4-14.24,49,49,0,0,0,9.27-13,5,5,0,0,0-2.79-7h0a5,5,0,0,0-6.12,2.44A38.9,38.9,0,0,1,85.71,76Z"/><path class="cls-2" d="M58.26,58.53c2.55,0,4.25-1.65,4.25-3.7,0-2.8-1.8-3.6-5.65-4.6-6.7-1.8-9.9-4.3-9.9-10,0-6.4,4.2-10.7,11.55-11.4v-3.4h3.15v3.35a18.1,18.1,0,0,1,8.25,3.1l-3.1,7A10.76,10.76,0,0,0,60,36.08c-2.35,0-3.9,1.25-3.9,3,0,2.55,2.4,3.05,5.7,4,6.3,1.7,9.8,4.05,9.8,10.6,0,6.7-4.4,11.65-11.3,12.3v6H57.11V66a16.64,16.64,0,0,1-12-5.15l4.4-7.15C52.36,56.93,55.21,58.53,58.26,58.53Z"/></g></g></svg>
