<svg xmlns="http://www.w3.org/2000/svg" viewBox="0 0 95.8 95.8"><defs><style>.cls-1{fill:#FFFFFF;}</style></defs><title>Sales</title><g id="Layer_2" data-name="Layer 2"><g id="Layer_1-2" data-name="Layer 1"><path class="cls-1" d="M95.8,23.2a17,17,0,0,0-5-12L90,10.36,85.44,5.8,84.62,5a17,17,0,0,0-12-5H64A17,17,0,0,0,52,5L2,55a6.7,6.7,0,0,0,0,9.47L14.37,76.86l4.57,4.57L31.35,93.84a6.7,6.7,0,0,0,9.47,0l50-50a17,17,0,0,0,5-12Zm-11.2-12a5.17,5.17,0,1,1-7.31,0A5.17,5.17,0,0,1,84.6,11.2ZM38.79,60.1,34,64.92,31.4,62.37l4.74-4.74c-3.77-3.93-5.39-8.15-5.52-13.87L40,41.52c-.36,4.91.65,8.52,3.12,11,2.07,2.07,4.79,2.11,6.45.45,2.27-2.27,1.46-4.38-.85-8.31-4-6.89-4.54-11.52,0-16.1,5.19-5.19,12.08-5.27,18.61.12l2.76-2.76,2.55,2.55L70,31.18a20.76,20.76,0,0,1,4.18,9.21L66,43.51a12.34,12.34,0,0,0-3.28-7.83c-1.91-1.91-4.18-2.15-5.56-.77-2.07,2.07-.53,4.42,1.42,7.83,3.73,6.49,4.66,11.23-.65,16.55S44.91,65.17,38.79,60.1Z"/></g></g></svg>
