<svg xmlns="http://www.w3.org/2000/svg" viewBox="0 0 103.12 101.77"><defs><style>.cls-1{fill:#FFFFFF;}</style></defs><title>Subscribers</title><g id="Layer_2" data-name="Layer 2"><g id="Layer_1-2" data-name="Layer 1"><path class="cls-1" d="M100.32,101.49H85.66a84,84,0,0,0-84-84V2.81A2.82,2.82,0,0,1,4.55,0a101.66,101.66,0,0,1,98.57,98.57A2.82,2.82,0,0,1,100.32,101.49Z"/><path class="cls-1" d="M62.49,101.49H47.87A46.23,46.23,0,0,0,1.64,55.25V40.63a2.82,2.82,0,0,1,2.95-2.81A63.82,63.82,0,0,1,65.3,98.54,2.82,2.82,0,0,1,62.49,101.49Z"/><circle class="cls-1" cx="13.54" cy="88.23" r="13.54"/></g></g></svg>
