<svg xmlns="http://www.w3.org/2000/svg" viewBox="0 0 92.71 101.9"><defs><style>.cls-1{fill:#FFFFFF;}</style></defs><title>web-traffic</title><g id="Layer_2" data-name="Layer 2"><g id="Layer_1-2" data-name="Layer 1"><path class="cls-1" d="M73.93,64.33a18.71,18.71,0,0,0-13.09,5.34L36.93,55.74a18.18,18.18,0,0,0,0-9.58L60.82,32.22a19,19,0,1,0-5-8.64L31.89,37.52a18.79,18.79,0,1,0,0,26.86l23.9,13.92a18.77,18.77,0,1,0,18.14-14Zm0-54.33a8.79,8.79,0,1,1-8.79,8.79A8.8,8.8,0,0,1,73.93,10ZM18.79,59.74A8.79,8.79,0,1,1,27.57,51,8.8,8.8,0,0,1,18.79,59.74ZM73.93,91.9a8.77,8.77,0,0,1-7.79-12.82c.09-.13.18-.25.26-.38s.08-.2.13-.29a8.78,8.78,0,1,1,7.4,13.5Z"/></g></g></svg>
